<mxfile host="app.diagrams.net" agent="Mozilla/5.0 (Windows NT 10.0; Win64; x64) AppleWebKit/537.36 (KHTML, like Gecko) Chrome/129.0.0.0 Safari/537.36 Edg/129.0.0.0" version="24.7.16">
  <diagram name="Страница — 1" id="A0N9_PXIGbkjCUN3LOct">
    <mxGraphModel dx="983" dy="552" grid="1" gridSize="10" guides="1" tooltips="1" connect="1" arrows="1" fold="1" page="1" pageScale="1" pageWidth="827" pageHeight="1169" math="0" shadow="0">
      <root>
        <mxCell id="0" />
        <mxCell id="1" parent="0" />
        <mxCell id="wjlt4hcQbg-Al8Nwyg-x-2" value="" style="rounded=1;whiteSpace=wrap;html=1;absoluteArcSize=1;arcSize=14;strokeWidth=2;" vertex="1" parent="1">
          <mxGeometry x="190" y="170" width="486" height="550" as="geometry" />
        </mxCell>
        <mxCell id="wjlt4hcQbg-Al8Nwyg-x-3" value="Учет Товаров" style="text;html=1;align=center;verticalAlign=middle;resizable=0;points=[];autosize=1;strokeColor=none;fillColor=none;" vertex="1" parent="1">
          <mxGeometry x="383" y="140" width="100" height="30" as="geometry" />
        </mxCell>
        <mxCell id="wjlt4hcQbg-Al8Nwyg-x-4" value="Сформировать отчет по учету товаров" style="ellipse;whiteSpace=wrap;html=1;" vertex="1" parent="1">
          <mxGeometry x="280" y="220" width="140" height="70" as="geometry" />
        </mxCell>
        <mxCell id="wjlt4hcQbg-Al8Nwyg-x-7" style="rounded=0;orthogonalLoop=1;jettySize=auto;html=1;entryX=0;entryY=0.5;entryDx=0;entryDy=0;endArrow=none;endFill=0;" edge="1" parent="1" target="wjlt4hcQbg-Al8Nwyg-x-4">
          <mxGeometry relative="1" as="geometry">
            <mxPoint x="140" y="380" as="sourcePoint" />
          </mxGeometry>
        </mxCell>
        <mxCell id="wjlt4hcQbg-Al8Nwyg-x-11" style="rounded=0;orthogonalLoop=1;jettySize=auto;html=1;entryX=0;entryY=0.5;entryDx=0;entryDy=0;endArrow=none;endFill=0;" edge="1" parent="1" target="wjlt4hcQbg-Al8Nwyg-x-10">
          <mxGeometry relative="1" as="geometry">
            <mxPoint x="140" y="380" as="sourcePoint" />
          </mxGeometry>
        </mxCell>
        <mxCell id="wjlt4hcQbg-Al8Nwyg-x-14" style="rounded=0;orthogonalLoop=1;jettySize=auto;html=1;entryX=0;entryY=0.5;entryDx=0;entryDy=0;endArrow=none;endFill=0;" edge="1" parent="1" target="wjlt4hcQbg-Al8Nwyg-x-12">
          <mxGeometry relative="1" as="geometry">
            <mxPoint x="140" y="380" as="sourcePoint" />
          </mxGeometry>
        </mxCell>
        <mxCell id="wjlt4hcQbg-Al8Nwyg-x-15" style="rounded=0;orthogonalLoop=1;jettySize=auto;html=1;entryX=0;entryY=0.5;entryDx=0;entryDy=0;endArrow=none;endFill=0;" edge="1" parent="1" target="wjlt4hcQbg-Al8Nwyg-x-13">
          <mxGeometry relative="1" as="geometry">
            <mxPoint x="140" y="380" as="sourcePoint" />
          </mxGeometry>
        </mxCell>
        <mxCell id="wjlt4hcQbg-Al8Nwyg-x-5" value="Бухгалтер" style="shape=umlActor;verticalLabelPosition=bottom;verticalAlign=top;html=1;" vertex="1" parent="1">
          <mxGeometry x="110" y="350" width="30" height="60" as="geometry" />
        </mxCell>
        <mxCell id="wjlt4hcQbg-Al8Nwyg-x-9" style="rounded=0;orthogonalLoop=1;jettySize=auto;html=1;entryX=0;entryY=0.5;entryDx=0;entryDy=0;" edge="1" parent="1" target="wjlt4hcQbg-Al8Nwyg-x-8">
          <mxGeometry relative="1" as="geometry">
            <mxPoint x="140" y="540.7142857142858" as="sourcePoint" />
          </mxGeometry>
        </mxCell>
        <mxCell id="wjlt4hcQbg-Al8Nwyg-x-10" value="Работа со справочниками" style="ellipse;whiteSpace=wrap;html=1;" vertex="1" parent="1">
          <mxGeometry x="320" y="340" width="140" height="70" as="geometry" />
        </mxCell>
        <mxCell id="wjlt4hcQbg-Al8Nwyg-x-12" value="Регистрировать поступления товаров" style="ellipse;whiteSpace=wrap;html=1;" vertex="1" parent="1">
          <mxGeometry x="320" y="450" width="140" height="70" as="geometry" />
        </mxCell>
        <mxCell id="wjlt4hcQbg-Al8Nwyg-x-13" value="Регистрировать продажу товаров" style="ellipse;whiteSpace=wrap;html=1;" vertex="1" parent="1">
          <mxGeometry x="280" y="570" width="140" height="70" as="geometry" />
        </mxCell>
      </root>
    </mxGraphModel>
  </diagram>
</mxfile>
